<svg fill="none" height="16" viewBox="0 0 16 16" width="16" xmlns="http://www.w3.org/2000/svg" xmlns:xlink="http://www.w3.org/1999/xlink"><clipPath id="a"><path d="m0 0h16v16h-16z"/></clipPath><g clip-path="url(#a)" stroke="#5aaddb" stroke-width="2"><g stroke-linecap="square"><path d="m6 2.66666.36719 2.20605-.05556-.33333"/><path d="m9.99993 2.66666-.372 2.19798.05553-.33334"/><path d="m2.33325 4.33333 1.33334 1.66666-.19146-.23932"/><path d="m13.6666 4.33333-1.3333 1.66666.1914-.23932"/><path d="m14.6666 8.429c-1.0193-1.35694-3.3008-3.76234-6.66668-3.76234-3.36585 0-5.64739 2.4054-6.66667 3.76234" stroke-miterlimit="10"/></g><path d="m10.3332 9.66666c0 1.28864-1.0447 2.33334-2.33336 2.33334-1.28867 0-2.33334-1.0447-2.33334-2.33334 0-1.28867 1.04467-2.33333 2.33334-2.33333 1.28866 0 2.33336 1.04466 2.33336 2.33333z"/></g></svg>