<svg fill="none" height="16" viewBox="0 0 16 16" width="16" xmlns="http://www.w3.org/2000/svg" xmlns:xlink="http://www.w3.org/1999/xlink"><clipPath id="a"><path d="m0 0h16v16h-16z"/></clipPath><g clip-path="url(#a)" stroke="#999" stroke-width="2"><path d="m6.99992 1.33333h2l.4462.8924c.29673.59348.98478.87846 1.61418.66863l.9466-.31551 1.4142 1.41421-.3155.94653c-.2099.62949.0751 1.31747.6686 1.61421l.8924.4462v2l-.8924.4462c-.5935.29673-.8785.9847-.6686 1.6142l.3155.9465-1.4142 1.4142-.9466-.3154c-.6294-.2099-1.31745.0751-1.61418.6686l-.4462.8924h-2l-.4462-.8924c-.29674-.5935-.98472-.8785-1.61421-.6686l-.94653.3154-1.41421-1.4142.31551-.9465c.20983-.6295-.07515-1.31747-.66863-1.6142l-.8924-.4462v-2l.8924-.4462c.59348-.29674.87846-.98472.66863-1.61421l-.31551-.94653 1.41421-1.41421.94653.31551c.62948.20983 1.31747-.07515 1.61421-.66863z"/><path d="m10 8c0 1.1046-.8954 2-2 2s-2-.8954-2-2 .8954-2 2-2 2 .8954 2 2z"/></g></svg>