<svg width="340" height="88" viewBox="0 0 340 88" fill="none" xmlns="http://www.w3.org/2000/svg">
<path d="M228.756 63.3964V24H235.737V57.251H254.173V63.3964H228.756Z" fill="black"/>
<path d="M269.993 64C261.812 64 256.085 57.9095 256.085 49.0206C256.085 40.5706 261.757 34.0412 269.721 34.0412C278.011 34.0412 282.429 40.3512 282.429 48.2524V50.4472H262.357C262.848 55.3855 265.794 58.4033 269.993 58.4033C273.211 58.4033 275.775 56.7572 276.648 53.7942L282.266 55.9342C280.248 60.9822 275.72 64 269.993 64ZM269.666 39.583C266.285 39.583 263.666 41.6132 262.685 45.5089H275.83C275.775 42.3265 273.811 39.583 269.666 39.583Z" fill="black"/>
<path d="M287.34 63.3964V34.5898H293.885V37.6626C295.522 35.7421 298.085 34.0412 301.794 34.0412C307.794 34.0412 311.394 38.2112 311.394 44.4115V63.3964H304.848V46.332C304.848 42.7654 303.43 40.1866 299.831 40.1866C296.885 40.1866 293.885 42.3813 293.885 46.4966V63.3964H287.34Z" fill="black"/>
<path d="M315.074 57.9095L319.983 53.9588C321.674 56.7572 324.946 58.6228 328.273 58.6228C331.055 58.6228 333.618 57.6351 333.618 55.0562C333.618 52.5871 331.219 52.3128 326.692 51.38C322.165 50.4472 316.983 49.2949 316.983 43.1495C316.983 37.882 321.565 34.0412 328.164 34.0412C333.182 34.0412 337.655 36.2908 339.727 39.4733L335.309 43.4787C333.673 40.8999 330.946 39.4184 327.782 39.4184C325.11 39.4184 323.364 40.6255 323.364 42.546C323.364 44.631 325.437 45.0151 329.037 45.7833C333.891 46.8258 340 47.8683 340 54.4527C340 60.2689 334.709 64 328.219 64C322.928 64 317.637 61.8601 315.074 57.9095Z" fill="black"/>
<path d="M118.872 63.3964H112V24H138.126V30.1454H118.872V40.845H135.017V46.9904H118.872V63.3964Z" fill="black"/>
<path d="M148.686 24V63.3964H142.141V24H148.686Z" fill="black"/>
<path d="M181.363 49.0206C181.363 57.9643 175.636 64 167.563 64C159.491 64 153.764 57.9643 153.764 49.0206C153.764 40.0768 159.491 34.0412 167.563 34.0412C175.636 34.0412 181.363 40.0768 181.363 49.0206ZM160.364 49.0206C160.364 54.8916 163.145 58.4582 167.563 58.4582C171.981 58.4582 174.763 54.8916 174.763 49.0206C174.763 43.1495 171.981 39.583 167.563 39.583C163.145 39.583 160.364 43.1495 160.364 49.0206Z" fill="black"/>
<path d="M199.56 34.5898H204.96L210.087 53.6845L215.16 34.5898H221.65L213.032 63.3964H207.36L202.124 44.5213L196.888 63.3964H191.215L182.598 34.5898H189.306L194.488 53.6845L199.56 34.5898Z" fill="black"/>
<path fill-rule="evenodd" clip-rule="evenodd" d="M49.2538 17.4349C52.2057 20.39 52.7925 24.819 51.0209 28.3787L65.3889 42.7617L34.8967 48.9362L41.2744 55.3206C44.8306 53.5469 49.2555 54.1351 52.2076 57.0903C55.9069 60.7939 55.8924 66.8124 52.1753 70.5334C48.4582 74.2542 42.4462 74.2684 38.7467 70.5653C35.7947 67.6103 35.2074 63.1813 36.9787 59.6216L22.6111 45.239L53.1033 39.0645L46.7248 32.6793C43.1689 34.4526 38.7448 33.8648 35.7928 30.9099C32.0933 27.2065 32.1072 21.1879 35.8243 17.4668C39.5414 13.7458 45.5542 13.7315 49.2538 17.4349ZM47.9115 61.3909C46.5733 60.0513 44.3984 60.0565 43.0539 61.4025C41.7096 62.7485 41.7046 64.9252 43.0427 66.2648C44.3809 67.6039 46.5551 67.5988 47.8996 66.2532C49.244 64.9074 49.2494 62.7306 47.9115 61.3909ZM44.9577 21.7355C43.6195 20.396 41.4445 20.4011 40.1 21.747C38.7557 23.0929 38.7508 25.2698 40.0889 26.6093C41.427 27.9487 43.6013 27.9435 44.9457 26.5978C46.2902 25.2519 46.2957 23.075 44.9577 21.7355Z" fill="black"/>
<path d="M17.4814 14.6667H20.4075L23.2222 22H20.6522L20.2294 20.8357H17.5816L17.1588 22H14.6667L17.4814 14.6667ZM18.9055 17.2303L18.2491 19.0176H19.5619L18.9055 17.2303Z" fill="black"/>
<path d="M16.6492 66H18.3333V73.3333H16.1487V68.9824H14.6667V67.2154L15.0901 67.1848C16.0814 67.1235 16.5048 66.766 16.6492 66Z" fill="black"/>
<path d="M21.2397 66H19.5556V73.3333H21.7402V68.9824H23.2222V67.2154L22.7988 67.1848C21.8075 67.1235 21.3841 66.766 21.2397 66Z" fill="black"/>
<path d="M69.1189 68.4104L70.6043 66H73.3333L70.3625 70.5144V73.3333H67.7486V70.5144L64.7778 66H67.622L69.1189 68.4104Z" fill="black"/>
<path d="M73.3333 18.9444C73.3333 21.307 71.4181 23.2222 69.0556 23.2222C66.693 23.2222 64.7778 21.307 64.7778 18.9444C64.7778 16.5819 66.693 14.6667 69.0556 14.6667C71.4181 14.6667 73.3333 16.5819 73.3333 18.9444Z" fill="#FF3355"/>
<path d="M0 70.8889V17.1111C0 7.66091 7.66091 0 17.1111 0V4.88889L16.7954 4.89307C10.1912 5.06052 4.88889 10.4665 4.88889 17.1111V70.8889C4.88889 77.639 10.361 83.1111 17.1111 83.1111H70.8889C77.5335 83.1111 82.9395 77.8088 83.1069 71.2046L83.1111 70.8889V17.1111C83.1111 10.4665 77.8088 5.06052 71.2046 4.89307L70.8889 4.88889V0C80.3391 0 88 7.66091 88 17.1111V70.8889C88 80.3391 80.3391 88 70.8889 88H17.1111C7.66091 88 0 80.3391 0 70.8889ZM70.8889 0V4.88889H17.1111V0H70.8889Z" fill="black"/>
</svg>
