<svg width="80" height="16" viewBox="0 0 80 16" fill="none" xmlns="http://www.w3.org/2000/svg">
<path d="M28.6764 4.10003V5.54003H24.7706V7.70003H28.376V9.14003H24.7706V12.5H23.1482V4.10003H28.6764Z" fill="#D2D2D2"/>
<path d="M35.8224 12.5H30.174V11.18H32.3372V5.42003H30.6547V4.10003H33.7793V11.18H35.8224V12.5Z" fill="#D2D2D2"/>
<path d="M40.1441 12.62C39.5432 12.62 39.0104 12.488 38.5457 12.224C38.089 11.952 37.7285 11.568 37.4641 11.072C37.2077 10.576 37.0795 9.99203 37.0795 9.32003C37.0795 8.64803 37.2077 8.06403 37.4641 7.56803C37.7285 7.07203 38.089 6.69203 38.5457 6.42803C39.0104 6.15603 39.5432 6.02003 40.1441 6.02003C40.745 6.02003 41.2738 6.15603 41.7305 6.42803C42.1952 6.69203 42.5557 7.07203 42.8121 7.56803C43.0765 8.06403 43.2087 8.64803 43.2087 9.32003C43.2087 9.99203 43.0765 10.576 42.8121 11.072C42.5557 11.568 42.1952 11.952 41.7305 12.224C41.2738 12.488 40.745 12.62 40.1441 12.62ZM40.1441 11.3C40.6408 11.3 41.0334 11.132 41.3219 10.796C41.6183 10.452 41.7665 9.96003 41.7665 9.32003C41.7665 8.68003 41.6183 8.19203 41.3219 7.85603C41.0334 7.51203 40.6408 7.34003 40.1441 7.34003C39.6474 7.34003 39.2508 7.51203 38.9543 7.85603C38.6659 8.19203 38.5217 8.68003 38.5217 9.32003C38.5217 9.96003 38.6659 10.452 38.9543 10.796C39.2508 11.132 39.6474 11.3 40.1441 11.3Z" fill="#D2D2D2"/>
<path d="M46.4007 12.5H44.9706L43.865 6.14003H45.3071L45.7518 9.26003L45.6075 10.7H45.7878L46.8093 7.40003H47.8909L48.9125 10.7H49.0927L48.9485 9.26003L49.3932 6.14003H50.8353L49.7297 12.5H48.2996L47.3862 9.50003H47.3261L46.4007 12.5Z" fill="#D2D2D2"/>
<path d="M58.6222 12.5H52.9137V4.10003H54.5361V11.06H58.6222V12.5Z" fill="#D2D2D2"/>
<path d="M65.8283 9.14003C65.8283 9.38003 65.8082 9.60003 65.7682 9.80003H61.1173C61.1974 10.256 61.3776 10.62 61.6581 10.892C61.9465 11.164 62.315 11.3 62.7637 11.3C63.1242 11.3 63.4167 11.232 63.641 11.096C63.8653 10.96 64.0296 10.788 64.1337 10.58H65.5759C65.4317 11.132 65.1392 11.612 64.6986 12.02C64.2659 12.42 63.641 12.62 62.8238 12.62C62.2069 12.62 61.6621 12.488 61.1894 12.224C60.7167 11.952 60.3481 11.568 60.0837 11.072C59.8273 10.576 59.6991 9.99203 59.6991 9.32003C59.6991 8.64803 59.8273 8.06403 60.0837 7.56803C60.3481 7.07203 60.7167 6.69203 61.1894 6.42803C61.6621 6.15603 62.2069 6.02003 62.8238 6.02003C63.4087 6.02003 63.9294 6.15203 64.3861 6.41603C64.8428 6.67203 65.1953 7.03603 65.4437 7.50803C65.7001 7.98003 65.8283 8.52403 65.8283 9.14003ZM64.4222 8.78003C64.3501 8.33203 64.1738 7.98003 63.8934 7.72403C63.613 7.46803 63.2364 7.34003 62.7637 7.34003C62.323 7.34003 61.9585 7.46803 61.6701 7.72403C61.3897 7.97203 61.2094 8.32403 61.1293 8.78003H64.4222Z" fill="#D2D2D2"/>
<path d="M67.2657 12.5V6.14003H68.5276L68.6478 6.68003H68.7079C68.8841 6.47203 69.1125 6.31203 69.3929 6.20003C69.6733 6.08003 69.9657 6.02003 70.2702 6.02003C71.0313 6.02003 71.6322 6.26003 72.0729 6.74003C72.5135 7.21203 72.7338 7.85203 72.7338 8.66003V12.5H71.2917V8.66003C71.2917 8.22803 71.1835 7.90003 70.9672 7.67603C70.7509 7.45203 70.4384 7.34003 70.0298 7.34003C69.6533 7.34003 69.3368 7.46403 69.0804 7.71203C68.832 7.95203 68.7079 8.26803 68.7079 8.66003V12.5H67.2657Z" fill="#D2D2D2"/>
<path d="M77.1758 12.62C76.5829 12.62 76.0661 12.52 75.6255 12.32C75.1848 12.112 74.8483 11.84 74.616 11.504C74.3836 11.16 74.2554 10.792 74.2314 10.4H75.7336C75.8858 11 76.3866 11.3 77.2359 11.3C77.6525 11.3 77.9649 11.244 78.1733 11.132C78.3896 11.02 78.4977 10.856 78.4977 10.64C78.4977 10.44 78.3856 10.3 78.1612 10.22C77.9369 10.132 77.5764 10.044 77.0796 9.95603C76.5268 9.86803 76.0661 9.76803 75.6976 9.65603C75.329 9.53603 75.0125 9.33603 74.7482 9.05603C74.4838 8.77603 74.3516 8.38403 74.3516 7.88003C74.3516 7.52803 74.4517 7.21203 74.652 6.93203C74.8603 6.65203 75.1688 6.43203 75.5774 6.27203C75.986 6.10403 76.4787 6.02003 77.0556 6.02003C77.8808 6.02003 78.5378 6.20803 79.0265 6.58403C79.5153 6.95203 79.7796 7.44403 79.8197 8.06003H78.3175C78.2534 7.82803 78.1212 7.65203 77.9209 7.53203C77.7286 7.40403 77.4201 7.34003 76.9955 7.34003C76.643 7.34003 76.3626 7.38803 76.1543 7.48403C75.954 7.58003 75.8538 7.72803 75.8538 7.92803C75.8538 8.15203 75.97 8.31203 76.2023 8.40803C76.4427 8.49603 76.8192 8.57603 77.332 8.64803C77.8848 8.73603 78.3375 8.83603 78.69 8.94803C79.0425 9.05203 79.347 9.24003 79.6034 9.51203C79.8678 9.77603 80 10.152 80 10.64C80 11.192 79.7877 11.66 79.363 12.044C78.9384 12.428 78.2093 12.62 77.1758 12.62Z" fill="#D2D2D2"/>
<path d="M16.0238 1.66669C16.0238 2.58717 15.2765 3.33336 14.3547 3.33336C13.4328 3.33336 12.6855 2.58717 12.6855 1.66669C12.6855 0.746219 13.4328 2.67029e-05 14.3547 2.67029e-05C15.2765 2.67029e-05 16.0238 0.746219 16.0238 1.66669Z" fill="#FF3355"/>
<path d="M1.33524 14.6667H2.67072V16H0V14.75H0.00293405C0.00123328 14.7225 1.11747e-06 14.6947 0 14.6667V13.3333H1.33524V14.6667Z" fill="#D2D2D2"/>
<path fill-rule="evenodd" clip-rule="evenodd" d="M5.77886 0.763672C6.79415 -0.251138 8.43645 -0.254892 9.44692 0.755127C10.2531 1.56106 10.4134 2.76894 9.92957 3.73975L13.8539 7.66235L5.52556 9.34619L7.26741 11.0874C8.23872 10.6037 9.44745 10.7641 10.2538 11.5701C11.2641 12.5801 11.2602 14.2215 10.245 15.2363C9.22972 16.2511 7.58765 16.255 6.57717 15.2451C5.77089 14.4392 5.61047 13.2313 6.09427 12.2605L2.16998 8.33789L10.4983 6.65405L8.75619 4.9126C7.78495 5.39622 6.57658 5.23581 5.7703 4.42993C4.75986 3.41992 4.76362 1.7785 5.77886 0.763672ZM9.08041 12.7429C8.7149 12.3776 8.12073 12.379 7.75348 12.7461C7.3863 13.1132 7.38506 13.7069 7.75055 14.0723C8.11604 14.4374 8.70978 14.436 9.07698 14.0691C9.44419 13.702 9.44581 13.1083 9.08041 12.7429ZM8.27354 1.92798C7.90805 1.56265 7.31384 1.56409 6.94662 1.93115C6.57953 2.29822 6.57825 2.8918 6.94368 3.25708C7.30916 3.62235 7.9029 3.6209 8.27012 3.25391C8.63731 2.88688 8.63893 2.29332 8.27354 1.92798Z" fill="#D2D2D2"/>
<path d="M16.0238 14.6667C16.0238 14.6947 16.0226 14.7225 16.0209 14.75H16.0238V16H13.3531V14.6667H14.6886V13.3333H16.0238V14.6667Z" fill="#D2D2D2"/>
<path d="M2.67072 1.33325H1.33524V2.66675H0V1.33325C2.22265e-06 1.30528 0.00123218 1.27754 0.00293405 1.25H0V0H2.67072V1.33325Z" fill="#D2D2D2"/>
</svg>
