<svg width="16" height="16" viewBox="0 0 16 16" fill="none" xmlns="http://www.w3.org/2000/svg">
<g clip-path="url(#clip0_91_2500)">
<path d="M6 2.66666L6.36719 4.87271L6.31163 4.53938" stroke="#2BE1E1" stroke-width="2" stroke-linecap="square"/>
<path d="M9.99993 2.66666L9.62793 4.86464L9.68346 4.5313" stroke="#2BE1E1" stroke-width="2" stroke-linecap="square"/>
<path d="M2.33325 4.33333L3.66659 5.99999L3.47513 5.76067" stroke="#2BE1E1" stroke-width="2" stroke-linecap="square"/>
<path d="M13.6666 4.33333L12.3333 5.99999L12.5247 5.76067" stroke="#2BE1E1" stroke-width="2" stroke-linecap="square"/>
<path d="M14.6666 8.429C13.6473 7.07206 11.3658 4.66666 7.99992 4.66666C4.63407 4.66666 2.35253 7.07206 1.33325 8.429" stroke="#2BE1E1" stroke-width="2" stroke-miterlimit="10" stroke-linecap="square"/>
<path d="M10.3332 9.66666C10.3332 10.9553 9.2885 12 7.99984 12C6.71117 12 5.6665 10.9553 5.6665 9.66666C5.6665 8.37799 6.71117 7.33333 7.99984 7.33333C9.2885 7.33333 10.3332 8.37799 10.3332 9.66666Z" stroke="#2BE1E1" stroke-width="2"/>
</g>
<defs>
<clipPath id="clip0_91_2500">
<rect width="16" height="16" fill="white"/>
</clipPath>
</defs>
</svg>
